<svg width="384" height="58" viewBox="0 0 384 58" fill="none" xmlns="http://www.w3.org/2000/svg">
<path d="M90.0065 41.7356L86.9632 47.8017H80.3496L98.2013 11.6123L110.119 35.773H103.421L98.2013 25.1402L92.9308 35.773L90.0065 41.7356ZM116.07 47.8017H109.422L106.481 41.7873H113.095L116.07 47.8017Z" fill="#222222"/>
<path d="M154.103 34.8086L161.431 47.8023H154.596L144.242 29.6559L149.547 29.7076C151.145 29.7076 152.539 29.1217 153.695 27.9498C154.902 26.7608 155.48 25.3132 155.48 23.6416C155.48 22.0045 154.902 20.6086 153.695 19.4367C152.539 18.2649 151.145 17.679 149.547 17.679H137.629L136.965 17.0069L133.888 11.5957H149.564C152.828 11.5957 155.633 12.7675 157.963 15.1285C160.292 17.5239 161.448 20.3328 161.448 23.6416C161.448 26.1748 160.785 28.4324 159.357 30.4659C157.946 32.4994 156.194 33.9469 154.103 34.8086Z" fill="#222222"/>
<path d="M204.139 41.7366L198.206 47.8026V11.6133L204.139 17.5931V41.7366Z" fill="#222222"/>
<path d="M242.75 42.4601C241.135 40.7885 239.843 38.8928 238.908 36.6698C237.973 34.4467 237.479 32.1375 237.479 29.7076C237.479 27.2261 237.973 24.8651 238.908 22.6421C239.843 20.4707 241.135 18.5751 242.75 16.9379C244.399 15.2663 246.269 13.9911 248.463 13.0433C250.605 12.0955 252.934 11.5957 255.382 11.5957C257.83 11.5957 260.16 12.0438 262.302 12.9916C264.444 13.9394 266.365 15.2491 268.014 16.9207L263.781 21.1256C261.418 18.7646 258.596 17.6445 255.382 17.6445C253.733 17.6445 252.169 17.9547 250.741 18.5406C249.262 19.1782 248.021 20.0399 246.949 21.16C245.878 22.2457 245.028 23.521 244.399 24.9685C243.77 26.4678 243.464 28.0015 243.464 29.6731C243.464 31.3448 243.77 32.8785 244.399 34.3778C245.028 35.8253 245.878 37.1006 246.983 38.1863C248.055 39.3236 249.313 40.1853 250.741 40.8057C252.22 41.3916 253.733 41.7018 255.382 41.7018L262.302 46.3547C260.16 47.3025 257.83 47.7506 255.382 47.7506C252.934 47.7506 250.605 47.2508 248.463 46.303C246.269 45.4069 244.399 44.0972 242.75 42.4601Z" fill="#222222"/>
<path d="M301.61 41.7366L298.567 47.8026H291.953L309.805 11.6133L321.723 35.774H315.024L309.805 25.1412L304.534 35.774L301.61 41.7366ZM327.674 47.8026H321.026L318.085 41.7883H324.698L327.674 47.8026Z" fill="#222222"/>
<path d="M366.148 11.5957V12.5952V33.5506L360.215 39.6166V12.5952V11.5957H366.148ZM384 41.7363V47.8023H360.215L366.148 41.7363H384Z" fill="#222222"/>
<path d="M32.651 0C32.8689 0.0490875 33.0626 0.098175 33.2805 0.171806C34.7818 0.58905 35.6777 2.18439 35.2419 3.73065C35.1208 4.17244 35.1935 4.46696 35.3872 4.83512C39.7457 12.8118 44.0074 20.8376 48.5113 28.7407C52.773 36.2266 57.2526 43.5652 61.6354 50.9774C62.047 51.6646 62.4345 52.2046 63.282 52.45C64.4442 52.7691 64.8801 53.8245 65.098 54.9535C65.098 55.0516 65.098 55.1253 65.098 55.2234C65.0738 55.2725 65.0254 55.3462 65.0254 55.3953C64.7106 57.9969 61.5143 58.7578 60.0373 56.917C59.9162 56.7452 59.5772 56.6961 59.335 56.6961C42.5546 56.3034 25.7741 56.107 8.96945 56.647C8.24303 56.6715 7.54081 56.6715 6.81439 56.6715C5.94268 56.6715 5.14361 56.6961 4.39297 57.4078C3.52125 58.2178 2.35897 58.1442 1.34197 57.506C0.324976 56.8679 -0.135094 55.9107 0.0344052 54.708C0.179691 53.5054 0.881903 52.6954 2.01997 52.3518C2.48004 52.2291 2.7464 52.0082 2.98854 51.591C7.46817 44.007 12.0689 36.4966 16.4274 28.8389C20.3017 22.0894 23.9338 15.1926 27.6628 8.36942C28.3408 7.14223 29.0188 5.91504 29.6726 4.66331C29.7937 4.44242 29.8663 4.12335 29.8179 3.87791C29.3578 1.9635 30.2538 0.490875 32.1425 0.098175C32.2151 0.0736313 32.312 0.0245438 32.3846 0C32.4815 0 32.5541 0 32.651 0ZM34.2975 9.59661C34.2249 9.62115 34.1765 9.6457 34.1038 9.67024C34.1038 9.89113 34.1038 10.0875 34.1038 10.3084C34.1038 18.3833 34.1038 26.4582 34.1038 34.5331C34.1038 35.0239 34.2249 35.3676 34.5639 35.7603C34.9029 36.1039 35.024 36.6193 35.2661 37.0611C35.4114 37.3065 35.5567 37.6256 35.7746 37.7483C42.8209 41.8962 49.8915 46.0195 56.962 50.1429C57.0589 50.2165 57.2042 50.2411 57.4948 50.3392C49.2619 36.9138 41.5618 23.3902 34.2975 9.59661ZM30.8349 9.67024C30.7623 9.6457 30.7138 9.62115 30.6412 9.62115C23.3769 23.4147 15.6768 36.9138 7.61346 50.2411C7.87981 50.192 8.07353 50.0693 8.26724 49.9711C15.1199 45.9705 21.9725 41.9453 28.8493 37.9692C29.3578 37.6747 29.7695 37.4047 29.8905 36.742C29.939 36.3984 30.1811 36.0302 30.4475 35.7848C30.8107 35.4412 30.8591 35.073 30.8591 34.6067C30.8591 26.5073 30.8591 18.4078 30.8591 10.3084C30.8349 10.112 30.8349 9.89113 30.8349 9.67024ZM55.7271 53.3581C55.5576 53.1618 55.5334 53.1127 55.485 53.0881C48.3176 48.8912 41.1744 44.7187 34.007 40.5217C33.0142 40.4972 32.0214 40.4727 31.0528 40.4481C31.0044 40.4481 30.9318 40.4972 30.8833 40.5463C23.7886 44.6942 16.718 48.8175 9.64745 52.9654C9.52638 53.0391 9.42952 53.1372 9.18738 53.3336C24.7813 52.8672 40.1816 52.8672 55.7271 53.3581Z" fill="#222222"/>
</svg>
