<svg width="48" height="48" viewBox="0 0 48 48" fill="none" xmlns="http://www.w3.org/2000/svg">
<path d="M24.0677 4.7998C24.2123 4.8323 24.3409 4.8648 24.4855 4.91355C25.4817 5.1898 26.0763 6.24602 25.7871 7.26975C25.7067 7.56225 25.7549 7.75724 25.8835 8.00099C28.7759 13.2821 31.604 18.5958 34.5928 23.8282C37.4209 28.7843 40.3937 33.6429 43.3022 38.5503C43.5753 39.0053 43.8324 39.3628 44.3949 39.5253C45.1662 39.7366 45.4554 40.4353 45.6 41.1828C45.6 41.2478 45.6 41.2965 45.6 41.3615C45.584 41.394 45.5518 41.4428 45.5518 41.4753C45.3429 43.1977 43.2218 43.7015 42.2416 42.4828C42.1613 42.369 41.9363 42.3365 41.7756 42.3365C30.6399 42.0765 19.5041 41.9465 8.35228 42.304C7.87022 42.3203 7.40422 42.3203 6.92215 42.3203C6.34367 42.3203 5.8134 42.3365 5.31526 42.8078C4.73678 43.344 3.96547 43.2952 3.29058 42.8728C2.61568 42.4503 2.31037 41.8165 2.42286 41.0203C2.51927 40.2241 2.98527 39.6878 3.74051 39.4603C4.04582 39.3791 4.22257 39.2328 4.38326 38.9566C7.35601 33.9354 10.4091 28.963 13.3015 23.8932C15.8725 19.4245 18.2829 14.8583 20.7575 10.3409C21.2074 9.52846 21.6573 8.71597 22.0912 7.88724C22.1715 7.74099 22.2198 7.52975 22.1876 7.36725C21.8823 6.09978 22.4769 5.1248 23.7302 4.8648C23.7784 4.84855 23.8427 4.81605 23.8909 4.7998C23.9552 4.7998 24.0034 4.7998 24.0677 4.7998ZM25.1604 11.1534C25.1122 11.1697 25.08 11.1859 25.0318 11.2022C25.0318 11.3484 25.0318 11.4784 25.0318 11.6247C25.0318 16.9708 25.0318 22.3169 25.0318 27.6631C25.0318 27.9881 25.1122 28.2156 25.3371 28.4756C25.5621 28.7031 25.6424 29.0443 25.8031 29.3368C25.8995 29.4993 25.996 29.7105 26.1406 29.7918C30.8166 32.538 35.5087 35.2679 40.2009 37.9979C40.2651 38.0466 40.3616 38.0629 40.5544 38.1279C35.091 29.2393 29.981 20.2857 25.1604 11.1534ZM22.8625 11.2022C22.8143 11.1859 22.7822 11.1697 22.734 11.1697C17.9133 20.302 12.8034 29.2393 7.45243 38.0629C7.62918 38.0304 7.75773 37.9491 7.88629 37.8841C12.4338 35.2354 16.9813 32.5705 21.5449 29.938C21.8823 29.743 22.1555 29.5643 22.2358 29.1255C22.268 28.898 22.4287 28.6543 22.6054 28.4918C22.8464 28.2643 22.8786 28.0206 22.8786 27.7118C22.8786 22.3494 22.8786 16.987 22.8786 11.6247C22.8625 11.4947 22.8625 11.3484 22.8625 11.2022ZM39.3814 40.1266C39.2689 39.9966 39.2528 39.9641 39.2207 39.9478C34.4643 37.1691 29.7239 34.4067 24.9675 31.628C24.3087 31.6117 23.6499 31.5955 23.0071 31.5792C22.975 31.5792 22.9268 31.6117 22.8946 31.6442C18.1865 34.3904 13.4943 37.1204 8.80221 39.8666C8.72187 39.9153 8.65759 39.9803 8.4969 40.1103C18.8453 39.8016 29.0651 39.8016 39.3814 40.1266Z" fill="#222222"/>
</svg>
